<svg aria-hidden="true" style="position: absolute; width: 0; height: 0; overflow: hidden;" version="1.1" xmlns="http://www.w3.org/2000/svg" xmlns:xlink="http://www.w3.org/1999/xlink">
    <defs>
        <symbol id="title" viewBox="0 0 32 32">
            <path fill="#84d2f4" style="fill: var(--color1, #84d2f4)" d="M16.5 30.5c7.18 0 13-5.82 13-13s-5.82-13-13-13c-7.18 0-13 5.82-13 13s5.82 13 13 13z"></path>
            <path fill="#57b7eb" style="fill: var(--color2, #57b7eb)" d="M29.265 19.945c-0.434 2.263-1.461 4.37-2.977 6.106s-3.466 3.037-5.651 3.771c-2.184 0.734-4.525 0.874-6.781 0.406s-4.348-1.528-6.060-3.070c-1.712-1.542-2.984-3.512-3.684-5.707s-0.805-4.537-0.302-6.786c0.502-2.249 1.594-4.324 3.162-6.012s3.557-2.93 5.763-3.597c-0.157 0.806-0.236 1.624-0.235 2.445 0.001 2.029 0.477 4.030 1.389 5.842s2.236 3.386 3.865 4.595c1.629 1.209 3.519 2.021 5.517 2.369s4.051 0.225 5.994-0.362v0z"></path>
            <path fill="#f9e109" style="fill: var(--color3, #f9e109)" d="M12.5 20l2.5 3.5-2 4-3.495 0.955c-2.239-1.429-3.987-3.51-5.008-5.962s-1.265-5.159-0.701-7.755 1.911-4.956 3.857-6.764c1.947-1.807 4.401-2.975 7.031-3.345l-0.685 1.37 1.5 0.5 1 3.5-2.5 1.5 0.5 2.5-1.5 1h-1.5l-0.5 2 2 0.5-0.5 2.5z"></path>
            <path fill="#f9e109" style="fill: var(--color3, #f9e109)" d="M29.5 17.5c0.001 2.645-0.805 5.227-2.311 7.401s-3.638 3.838-6.114 4.768l-2.575-1.17-0.5-3v-6l1.5-2 2.5 0.5v-2l-1.5-0.5 0.5-3h3l2-2 1.39-0.1c1.381 2.11 2.114 4.578 2.11 7.1z"></path>
            <path fill="#fcbc04" style="fill: var(--color4, #fcbc04)" d="M15 23.5l-2 4-3.495 0.955c-2.095-1.337-3.763-3.247-4.806-5.504s-1.417-4.765-1.077-7.227c0.339-2.462 1.378-4.776 2.992-6.666s3.737-3.278 6.116-3.998c-0.153 0.804-0.23 1.621-0.23 2.44-0.005 2.33 0.622 4.618 1.815 6.62l-1.315 0.88h-1.5l-0.5 2 2 0.5-0.5 2.5 2.5 3.5z"></path>
            <path fill="#fcbc04" style="fill: var(--color4, #fcbc04)" d="M29.27 19.94c-0.419 2.188-1.392 4.231-2.827 5.935s-3.283 3.010-5.368 3.795l-2.575-1.17-0.5-3v-6l0.695-0.925c1.566 0.963 3.318 1.583 5.141 1.818s3.675 0.081 5.434-0.453v0z"></path>
            <path fill="#f9e109" style="fill: var(--color3, #f9e109)" d="M23.47 6.53l-1.97 1.97-1-1.5-2-0.5-0.27-1.885c1.866 0.246 3.655 0.9 5.24 1.915v0z"></path>
            <path fill="#f9e109" style="fill: var(--color3, #f9e109)" d="M16.5 13.5l-0.5 2-1.5 1 0.5 2h1.5l0.75-1.5 1.25-1v-2.5h-2z"></path>
            <path fill="#84d2f4" style="fill: var(--color1, #84d2f4)" d="M22.5 22c0.552 0 1-0.448 1-1s-0.448-1-1-1c-0.552 0-1 0.448-1 1s0.448 1 1 1z"></path>
            <path fill="#57b7eb" style="fill: var(--color2, #57b7eb)" d="M11.5 13c0.552 0 1-0.448 1-1s-0.448-1-1-1c-0.552 0-1 0.448-1 1s0.448 1 1 1z"></path>
            <path fill="#fcbc04" style="fill: var(--color4, #fcbc04)" d="M17.060 17.38l-0.56 1.12h-1.5l-0.5-2 1.015-0.675c0.468 0.563 0.985 1.084 1.545 1.555v0z"></path>
            <path fill="#57b7eb" style="fill: var(--color2, #57b7eb)" d="M22.5 22c0.198-0 0.392-0.059 0.556-0.17s0.293-0.267 0.368-0.451c0.075-0.183 0.094-0.385 0.055-0.579s-0.136-0.372-0.277-0.512c-0.35-0.062-0.695-0.138-1.035-0.228-0.22 0.080-0.404 0.235-0.522 0.438s-0.16 0.44-0.12 0.67c0.040 0.231 0.159 0.44 0.337 0.592s0.404 0.236 0.638 0.239z"></path>
            <path fill="#f8664f" style="fill: var(--color5, #f8664f)" d="M27.5 6c-0.796 0-1.559 0.316-2.121 0.879s-0.879 1.326-0.879 2.121c0 3 3 5 3 5s3-2 3-5c0-0.796-0.316-1.559-0.879-2.121s-1.326-0.879-2.121-0.879zM27.5 10c-0.198 0-0.391-0.059-0.556-0.169s-0.293-0.266-0.368-0.449c-0.076-0.183-0.095-0.384-0.057-0.578s0.134-0.372 0.274-0.512 0.318-0.235 0.512-0.274c0.194-0.039 0.395-0.019 0.578 0.057s0.339 0.204 0.449 0.368c0.11 0.164 0.169 0.358 0.169 0.556 0 0.265-0.105 0.52-0.293 0.707s-0.442 0.293-0.707 0.293z"></path>
            <path fill="#cc5144" style="fill: var(--color6, #cc5144)" d="M25 7.5c0-0.055 0-0.11 0.005-0.16-0.331 0.49-0.506 1.069-0.505 1.66 0 3 3 5 3 5 0.77-0.548 1.44-1.225 1.98-2-1.19-0.005-2.329-0.482-3.169-1.325s-1.311-1.985-1.311-3.175v0z"></path>
            <path fill="#f8664f" style="fill: var(--color5, #f8664f)" d="M16.5 20.5c-0.796 0-1.559 0.316-2.121 0.879s-0.879 1.326-0.879 2.121c0 3 3 5 3 5s3-2 3-5c0-0.796-0.316-1.559-0.879-2.121s-1.326-0.879-2.121-0.879zM16.5 24.5c-0.198 0-0.391-0.059-0.556-0.169s-0.293-0.266-0.368-0.449c-0.076-0.183-0.095-0.384-0.057-0.578s0.134-0.372 0.274-0.512 0.318-0.235 0.512-0.274c0.194-0.039 0.395-0.019 0.578 0.057s0.339 0.204 0.449 0.368c0.11 0.164 0.169 0.358 0.169 0.556 0 0.265-0.105 0.52-0.293 0.707s-0.442 0.293-0.707 0.293z"></path>
            <path fill="#cc5144" style="fill: var(--color6, #cc5144)" d="M14 22c0-0.055 0-0.11 0.005-0.16-0.331 0.49-0.506 1.069-0.505 1.66 0 3 3 5 3 5 0.77-0.548 1.44-1.225 1.98-2-1.19-0.005-2.329-0.482-3.169-1.325s-1.311-1.985-1.311-3.175v0z"></path>
            <path fill="#f8664f" style="fill: var(--color5, #f8664f)" d="M4.5 14.5c-0.796 0-1.559 0.316-2.121 0.879s-0.879 1.326-0.879 2.121c0 3 3 5 3 5s3-2 3-5c0-0.796-0.316-1.559-0.879-2.121s-1.326-0.879-2.121-0.879zM4.5 18.5c-0.198 0-0.391-0.059-0.556-0.169s-0.293-0.266-0.368-0.449c-0.076-0.183-0.095-0.384-0.057-0.578s0.134-0.372 0.274-0.512 0.318-0.235 0.512-0.274c0.194-0.039 0.395-0.019 0.578 0.057s0.339 0.204 0.449 0.368c0.11 0.164 0.169 0.358 0.169 0.556 0 0.265-0.105 0.52-0.293 0.707s-0.442 0.293-0.707 0.293z"></path>
            <path fill="#cc5144" style="fill: var(--color6, #cc5144)" d="M2 16c0-0.055 0-0.11 0.005-0.16-0.331 0.49-0.506 1.069-0.505 1.66 0 3 3 5 3 5 0.77-0.548 1.44-1.225 1.98-2-1.19-0.005-2.329-0.482-3.169-1.325s-1.311-1.985-1.311-3.175v0z"></path>
            <path fill="#f8664f" style="fill: var(--color5, #f8664f)" d="M9 1.5c-0.796 0-1.559 0.316-2.121 0.879s-0.879 1.326-0.879 2.121c0 3 3 5 3 5s3-2 3-5c0-0.796-0.316-1.559-0.879-2.121s-1.326-0.879-2.121-0.879v0zM9 5.5c-0.198 0-0.391-0.059-0.556-0.169s-0.293-0.266-0.368-0.449c-0.076-0.183-0.095-0.384-0.057-0.578s0.134-0.372 0.274-0.512 0.318-0.235 0.512-0.274c0.194-0.039 0.395-0.019 0.578 0.057s0.339 0.204 0.449 0.368c0.11 0.164 0.169 0.358 0.169 0.556 0 0.265-0.105 0.52-0.293 0.707s-0.442 0.293-0.707 0.293z"></path>
            <path fill="#cc5144" style="fill: var(--color6, #cc5144)" d="M6.5 3c0-0.055 0-0.11 0.005-0.16-0.331 0.49-0.506 1.069-0.505 1.66 0 3 3 5 3 5 0.77-0.548 1.44-1.225 1.98-2-1.19-0.005-2.329-0.482-3.169-1.325s-1.311-1.985-1.311-3.175z"></path>
            <path fill="#cc5144" style="fill: var(--color6, #cc5144)" d="M9.385 23.14c-0.042-0.051-0.073-0.109-0.092-0.172s-0.026-0.129-0.019-0.195 0.026-0.129 0.057-0.187c0.031-0.058 0.073-0.109 0.124-0.151 0.104-0.082 0.235-0.121 0.366-0.108s0.253 0.077 0.338 0.178v0.005c0.083 0.102 0.122 0.233 0.109 0.364s-0.077 0.252-0.179 0.336c-0.089 0.073-0.2 0.113-0.315 0.115-0.075-0-0.148-0.017-0.216-0.049s-0.127-0.078-0.174-0.136v0z"></path>
            <path fill="#cc5144" style="fill: var(--color6, #cc5144)" d="M11.225 24.64c-0.042-0.051-0.073-0.11-0.092-0.172s-0.026-0.129-0.019-0.195c0.007-0.066 0.026-0.129 0.057-0.187s0.073-0.109 0.125-0.151v0c0.104-0.082 0.235-0.121 0.366-0.108s0.253 0.077 0.338 0.178v0.005c0.083 0.102 0.122 0.233 0.109 0.364s-0.077 0.252-0.179 0.336v0c-0.089 0.073-0.2 0.113-0.315 0.115v0c-0.075-0-0.148-0.017-0.216-0.049s-0.127-0.078-0.174-0.136v0z"></path>
            <path fill="#cc5144" style="fill: var(--color6, #cc5144)" d="M8.025 21.020c-0.057-0.119-0.065-0.255-0.022-0.38s0.134-0.227 0.252-0.285c0.119-0.059 0.256-0.068 0.382-0.026s0.229 0.133 0.288 0.251v0 0.005c0.029 0.059 0.046 0.123 0.050 0.188s-0.005 0.131-0.026 0.192c-0.021 0.062-0.055 0.119-0.098 0.168s-0.096 0.089-0.155 0.117c-0.068 0.034-0.144 0.051-0.22 0.050v0c-0.094 0-0.186-0.026-0.265-0.075s-0.144-0.12-0.185-0.205z"></path>
            <path fill="#cc5144" style="fill: var(--color6, #cc5144)" d="M7.574 14.25c-0.064-0.015-0.124-0.042-0.177-0.080s-0.098-0.087-0.133-0.143c-0.034-0.056-0.057-0.118-0.067-0.183s-0.007-0.131 0.008-0.195c0.031-0.128 0.111-0.239 0.224-0.309s0.248-0.091 0.376-0.061v0c0.064 0.015 0.125 0.042 0.178 0.080s0.099 0.086 0.134 0.142c0.035 0.056 0.058 0.118 0.069 0.183s0.009 0.131-0.006 0.195c-0.026 0.11-0.089 0.208-0.178 0.278s-0.199 0.108-0.312 0.107v0c-0.039-0-0.078-0.005-0.116-0.015v0z"></path>
            <path fill="#cc5144" style="fill: var(--color6, #cc5144)" d="M8.575 12.25c-0.064-0.015-0.124-0.042-0.177-0.080s-0.098-0.087-0.133-0.143c-0.034-0.056-0.057-0.118-0.068-0.183s-0.007-0.131 0.008-0.195v0c0.031-0.128 0.111-0.239 0.224-0.309s0.248-0.091 0.376-0.061v0c0.064 0.015 0.125 0.042 0.178 0.080s0.099 0.086 0.134 0.142c0.035 0.056 0.058 0.118 0.069 0.183s0.009 0.131-0.006 0.195c-0.026 0.11-0.089 0.208-0.178 0.278s-0.199 0.108-0.312 0.107v0c-0.039-0-0.078-0.005-0.116-0.015z"></path>
            <path fill="#f8664f" style="fill: var(--color5, #f8664f)" d="M19.16 10.5h0.006c-0.062-0.022-0.119-0.056-0.168-0.1s-0.089-0.097-0.117-0.157c-0.028-0.059-0.045-0.124-0.048-0.19s0.006-0.132 0.029-0.194c0.045-0.125 0.138-0.226 0.258-0.282s0.257-0.063 0.382-0.018v-0.005c0.125 0.045 0.226 0.138 0.283 0.258s0.065 0.257 0.021 0.382c-0.036 0.098-0.1 0.182-0.185 0.242s-0.186 0.092-0.29 0.093v0c-0.058-0.001-0.115-0.011-0.17-0.030v0z"></path>
            <path fill="#f8664f" style="fill: var(--color5, #f8664f)" d="M22.16 10.5h0.006c-0.062-0.022-0.119-0.056-0.168-0.1s-0.089-0.097-0.117-0.157c-0.028-0.059-0.045-0.124-0.048-0.19s0.006-0.132 0.029-0.194c0.045-0.125 0.138-0.226 0.258-0.282s0.257-0.063 0.382-0.018v-0.005c0.125 0.045 0.226 0.138 0.283 0.258s0.065 0.257 0.021 0.382c-0.036 0.098-0.1 0.182-0.185 0.242s-0.186 0.092-0.29 0.093v0c-0.058-0.001-0.115-0.011-0.17-0.030v0z"></path>
            <path fill="#f8664f" style="fill: var(--color5, #f8664f)" d="M14.075 8.56c-0.032-0.129-0.011-0.265 0.057-0.378s0.179-0.195 0.308-0.227c0.063-0.016 0.129-0.020 0.194-0.011s0.127 0.031 0.183 0.065c0.056 0.033 0.105 0.078 0.144 0.13s0.067 0.112 0.083 0.176v0c0.016 0.064 0.020 0.131 0.011 0.196s-0.032 0.128-0.066 0.185c-0.034 0.057-0.079 0.106-0.132 0.145s-0.114 0.068-0.178 0.083h0.005c-0.041 0.010-0.083 0.015-0.125 0.015v0c-0.111-0.001-0.219-0.039-0.307-0.108s-0.15-0.164-0.178-0.272v0z"></path>
            <path fill="#f8664f" style="fill: var(--color5, #f8664f)" d="M12.075 9.635c-0.032-0.129-0.011-0.265 0.057-0.378s0.179-0.195 0.308-0.227c0.063-0.016 0.129-0.020 0.194-0.011s0.127 0.031 0.183 0.065c0.056 0.033 0.105 0.078 0.144 0.13s0.067 0.112 0.083 0.176c0.016 0.064 0.020 0.131 0.011 0.196s-0.032 0.128-0.066 0.185c-0.034 0.057-0.079 0.106-0.132 0.145s-0.114 0.068-0.178 0.083h0.005c-0.041 0.010-0.083 0.015-0.125 0.015v0c-0.111-0.001-0.219-0.039-0.307-0.108s-0.15-0.164-0.178-0.272v0z"></path>
            <path fill="#f8664f" style="fill: var(--color5, #f8664f)" d="M17.5 8.14c0.003-0.066 0.019-0.13 0.047-0.189s0.068-0.113 0.116-0.157c0.049-0.044 0.106-0.078 0.168-0.1s0.128-0.032 0.193-0.028v0c0.132 0.008 0.256 0.067 0.345 0.165s0.136 0.227 0.13 0.36v0c-0.003 0.066-0.019 0.13-0.047 0.19s-0.068 0.113-0.116 0.157c-0.049 0.044-0.106 0.078-0.168 0.1s-0.128 0.032-0.193 0.028v0c-0.066-0.003-0.131-0.018-0.19-0.046s-0.113-0.068-0.157-0.116c-0.044-0.049-0.078-0.106-0.1-0.168s-0.031-0.128-0.027-0.194v0z"></path>
            <path fill="#cc5144" style="fill: var(--color6, #cc5144)" d="M21.72 26.14c-0.036-0.055-0.060-0.117-0.071-0.182s-0.010-0.131 0.005-0.195 0.042-0.125 0.080-0.178c0.038-0.054 0.087-0.099 0.142-0.134s0.117-0.060 0.182-0.071c0.065-0.012 0.131-0.010 0.195 0.004s0.125 0.041 0.179 0.080c0.054 0.038 0.099 0.087 0.134 0.142 0.069 0.113 0.092 0.248 0.063 0.377s-0.108 0.241-0.218 0.313v0c-0.080 0.048-0.171 0.074-0.265 0.075v0c-0.085 0.001-0.168-0.020-0.242-0.060s-0.137-0.099-0.183-0.17z"></path>
            <path fill="#cc5144" style="fill: var(--color6, #cc5144)" d="M19.72 27.64c-0.036-0.055-0.060-0.117-0.071-0.182s-0.010-0.131 0.005-0.195 0.042-0.125 0.080-0.178c0.038-0.054 0.087-0.099 0.142-0.134v0c0.055-0.036 0.117-0.060 0.182-0.071s0.131-0.010 0.195 0.004c0.064 0.014 0.125 0.041 0.179 0.080s0.099 0.087 0.134 0.142v0c0.069 0.113 0.092 0.248 0.063 0.377s-0.108 0.241-0.218 0.313v0c-0.080 0.048-0.171 0.074-0.265 0.075v0c-0.085 0.001-0.168-0.020-0.242-0.060s-0.137-0.099-0.183-0.17z"></path>
            <path fill="#cc5144" style="fill: var(--color6, #cc5144)" d="M23.675 24.715c-0.047-0.046-0.085-0.1-0.111-0.161s-0.039-0.125-0.040-0.191c-0-0.066 0.012-0.131 0.037-0.191s0.062-0.116 0.108-0.162v0c0.093-0.094 0.219-0.147 0.351-0.148s0.259 0.050 0.354 0.143c0.047 0.046 0.085 0.101 0.111 0.162s0.039 0.126 0.040 0.192-0.012 0.131-0.037 0.193c-0.025 0.061-0.062 0.117-0.108 0.163-0.095 0.093-0.222 0.145-0.355 0.145v0c-0.065 0.001-0.13-0.011-0.19-0.036s-0.115-0.062-0.16-0.109v0z"></path>
            <path fill="#cc5144" style="fill: var(--color6, #cc5144)" d="M25.255 22.89c-0.113-0.070-0.194-0.182-0.225-0.311s-0.009-0.266 0.060-0.379v0c0.071-0.112 0.182-0.192 0.311-0.223s0.265-0.010 0.379 0.058v0c0.112 0.071 0.192 0.183 0.223 0.311s0.010 0.265-0.058 0.379v0c-0.046 0.073-0.109 0.134-0.184 0.175s-0.16 0.064-0.246 0.065v0c-0.092-0-0.182-0.026-0.26-0.075z"></path>
            <path fill="#f8664f" style="fill: var(--color5, #f8664f)" d="M26.38 20.75c-0.125-0.042-0.228-0.132-0.287-0.25s-0.069-0.255-0.028-0.38v-0.005c0.043-0.125 0.134-0.228 0.253-0.286s0.256-0.067 0.381-0.024v0c0.062 0.020 0.12 0.053 0.169 0.096s0.090 0.095 0.12 0.154c0.029 0.059 0.047 0.122 0.051 0.188s-0.004 0.131-0.025 0.193c-0.034 0.099-0.097 0.186-0.183 0.247s-0.188 0.094-0.292 0.093v0c-0.054 0.001-0.109-0.007-0.16-0.025v0z"></path>
            <path fill="#f8664f" style="fill: var(--color5, #f8664f)" d="M26.995 18.415c-0.132-0.013-0.253-0.077-0.338-0.179s-0.125-0.234-0.112-0.366h0.005c0.006-0.065 0.024-0.129 0.054-0.187s0.072-0.109 0.122-0.151c0.050-0.042 0.108-0.073 0.171-0.093s0.128-0.026 0.193-0.020c0.066 0.006 0.129 0.025 0.187 0.055s0.11 0.073 0.152 0.123c0.042 0.051 0.073 0.109 0.092 0.172s0.025 0.129 0.019 0.194c-0.010 0.124-0.067 0.239-0.159 0.322s-0.212 0.129-0.336 0.128h-0.050z"></path>
            <path fill="#f8664f" style="fill: var(--color5, #f8664f)" d="M26.995 16.415c-0.132-0.013-0.253-0.077-0.338-0.179s-0.125-0.234-0.112-0.366h0.005c0.006-0.065 0.024-0.129 0.054-0.187s0.072-0.109 0.122-0.151c0.050-0.042 0.108-0.073 0.171-0.093s0.128-0.026 0.193-0.020c0.066 0.006 0.129 0.025 0.187 0.055s0.11 0.072 0.152 0.123c0.042 0.051 0.073 0.109 0.092 0.172s0.025 0.129 0.019 0.194v0c-0.010 0.124-0.067 0.239-0.159 0.322s-0.212 0.129-0.336 0.128h-0.050z"></path>
            <path fill="#cc5144" style="fill: var(--color6, #cc5144)" d="M12.74 9.98c-0.020 0.005-0.035 0.015-0.055 0.020-0.041 0.010-0.083 0.015-0.125 0.015-0.111-0.001-0.219-0.039-0.307-0.108s-0.15-0.164-0.178-0.272c-0.032-0.129-0.011-0.265 0.057-0.378s0.179-0.195 0.308-0.227c0.041-0.010 0.083-0.015 0.125-0.015h0.025c0.035 0.325 0.085 0.65 0.15 0.965z"></path>
            <path fill="#cc5144" style="fill: var(--color6, #cc5144)" d="M27.020 20.41c0.001 0.009-0.001 0.017-0.005 0.025-0.034 0.099-0.097 0.186-0.183 0.247s-0.188 0.094-0.292 0.093c-0.054 0.001-0.109-0.007-0.16-0.025-0.065-0.022-0.124-0.056-0.175-0.102s-0.092-0.101-0.12-0.163c0.315-0.010 0.625-0.035 0.935-0.075z"></path>
        </symbol>
        <symbol id="man1" viewBox="0 0 32 32">
            <path fill="#f4e2ff" style="fill: var(--color7, #f4e2ff)" d="M17.033 22.096h-2.066c-0.25 0.001-0.491 0.034-0.721 0.096l0.020-0.005v7.409h3.469v-7.409c-0.21-0.057-0.452-0.090-0.701-0.091h-0z"></path>
            <path fill="#243f57" style="fill: var(--color8, #243f57)" d="M19.358 28.981l0.465-3.724c0.014-0.104 0.021-0.225 0.021-0.347 0-1.304-0.887-2.4-2.091-2.718l-0.020-0.004v7.409h0.927c0.357-0 0.652-0.267 0.696-0.612l0-0.003z"></path>
            <path fill="#243f57" style="fill: var(--color8, #243f57)" d="M12.176 25.257l0.466 3.724c0.045 0.349 0.34 0.615 0.697 0.615h0.927v-7.409c-1.223 0.322-2.111 1.419-2.111 2.722 0 0.122 0.008 0.243 0.023 0.361l-0.001-0.014z"></path>
            <path fill="#f8c497" style="fill: var(--color9, #f8c497)" d="M23.239 13.74h-0.677c-0-3.624-2.938-6.562-6.562-6.562-0 0-0 0-0 0v0c-3.624 0-6.563 2.938-6.563 6.563v0-0h-0.677c-0.001 0-0.002 0-0.004 0-1.165 0-2.11 0.944-2.11 2.11s0.944 2.11 2.11 2.11c0.001 0 0.003 0 0.004 0l0.677-0c0 3.624 2.938 6.563 6.563 6.563v0 0c0 0 0 0 0 0 3.624 0 6.562-2.938 6.562-6.562v0h0.677c0.001 0 0.002 0 0.004 0 1.165 0 2.11-0.944 2.11-2.11s-0.944-2.11-2.11-2.11c-0.001 0-0.003 0-0.004 0h0z"></path>
            <path fill="#f7725c" style="fill: var(--color10, #f7725c)" d="M16 22.384c-0.002 0-0.004 0-0.007 0-0.645 0-1.229-0.262-1.65-0.687l-0-0c-0.086-0.085-0.139-0.203-0.139-0.333 0-0.259 0.21-0.469 0.469-0.469 0.13 0 0.248 0.053 0.333 0.139l0 0c0.531 0.531 1.457 0.531 1.989 0 0.085-0.085 0.202-0.137 0.331-0.137 0.259 0 0.469 0.21 0.469 0.469 0 0.129-0.052 0.247-0.137 0.331v0c-0.422 0.424-1.005 0.687-1.651 0.687-0.002 0-0.005 0-0.007 0h0z"></path>
            <path fill="#ef9e72" style="fill: var(--color11, #ef9e72)" d="M16 16.413c0.573 0 1.038 0.465 1.038 1.038v1.675c0 0.573-0.465 1.038-1.038 1.038s-1.038-0.465-1.038-1.038v-1.675c0-0.573 0.465-1.038 1.038-1.038z"></path>
            <path fill="#ef9e72" style="fill: var(--color11, #ef9e72)" d="M23.406 14.595h-0.844v2.509h0.844c0.625-0.084 1.101-0.614 1.101-1.255s-0.477-1.171-1.095-1.254l-0.006-0.001z"></path>
            <path fill="#0d263e" style="fill: var(--color12, #0d263e)" d="M18.585 17.226c-0.259-0-0.468-0.21-0.468-0.469 0-0.235 0.172-0.429 0.398-0.463l0.003-0 2.2-0.326c0.021-0.003 0.044-0.005 0.069-0.005 0.259 0 0.469 0.21 0.469 0.469 0 0.235-0.172 0.429-0.398 0.463l-0.003 0-2.2 0.326c-0.021 0.003-0.045 0.005-0.069 0.005-0 0-0 0-0 0h0z"></path>
            <path fill="#0d263e" style="fill: var(--color12, #0d263e)" d="M13.415 17.226c-0 0-0 0-0 0-0.024 0-0.048-0.002-0.071-0.005l0.003 0-2.2-0.326c-0.228-0.035-0.4-0.229-0.4-0.464 0-0.259 0.21-0.469 0.469-0.469 0.024 0 0.048 0.002 0.071 0.005l-0.003-0 2.2 0.326c0.228 0.035 0.4 0.229 0.4 0.464 0 0.259-0.21 0.469-0.468 0.469h-0z"></path>
            <path fill="#ef9e72" style="fill: var(--color11, #ef9e72)" d="M8.594 14.595h0.844v2.509h-0.844c-0.625-0.084-1.101-0.614-1.101-1.255s0.477-1.171 1.095-1.254l0.007-0.001z"></path>
            <path fill="#eb5d25" style="fill: var(--color13, #eb5d25)" d="M16 6.501c-3.998 0-7.239 3.241-7.239 7.239v0l1.448 1.269 1.448-1.269 1.448 1.269 1.448-1.269 1.448 1.269 1.448-1.269 1.448 1.269 1.448-1.269 1.448 1.269 1.448-1.269c-0-3.998-3.241-7.239-7.239-7.239v0z"></path>
        </symbol>
        <symbol id="man2" viewBox="0 0 32 32">
            <path fill="#f4e2ff" style="fill: var(--color7, #f4e2ff)" d="M18.661 29.596h-5.323c-0.357 0-0.652-0.267-0.696-0.612l-0-0.003-0.466-3.724c-0.014-0.105-0.022-0.226-0.022-0.349 0-1.553 1.259-2.812 2.812-2.812 0 0 0 0 0 0h2.066c0 0 0 0 0 0 1.553 0 2.812 1.259 2.812 2.812 0 0.123-0.008 0.244-0.023 0.363l0.001-0.014-0.466 3.724c-0.045 0.349-0.34 0.615-0.697 0.615v0z"></path>
            <path fill="#f8c497" style="fill: var(--color9, #f8c497)" d="M23.239 13.74l-0.677 0c0-3.624-2.938-6.563-6.563-6.563s-6.563 2.938-6.563 6.563v0-0h-0.677c-0.001 0-0.002 0-0.004 0-1.165 0-2.109 0.944-2.109 2.109s0.944 2.109 2.109 2.109c0.001 0 0.003 0 0.004 0l0.676-0c0 3.624 2.938 6.563 6.562 6.563s6.563-2.938 6.563-6.563v0 0h0.677c0.001 0 0.002 0 0.004 0 1.165 0 2.109-0.944 2.109-2.109s-0.944-2.109-2.109-2.109c-0.001 0-0.003 0-0.004 0h0z"></path>
            <path fill="#f7725c" style="fill: var(--color10, #f7725c)" d="M16 22.384c-0.002 0-0.004 0-0.007 0-0.645 0-1.229-0.262-1.65-0.686l-0-0c-0.085-0.085-0.137-0.202-0.137-0.331 0-0.259 0.21-0.469 0.469-0.469 0.129 0 0.247 0.052 0.331 0.137v0c0.531 0.531 1.458 0.531 1.989 0 0.085-0.085 0.202-0.137 0.331-0.137 0.259 0 0.469 0.21 0.469 0.469 0 0.129-0.052 0.247-0.137 0.331v0c-0.422 0.424-1.005 0.686-1.651 0.686-0.002 0-0.005 0-0.007 0h0z"></path>
            <path fill="#0d263e" style="fill: var(--color12, #0d263e)" d="M19.828 22.131c-0 0-0 0-0 0-0.259 0-0.469-0.21-0.469-0.469 0-0 0-0 0-0v0-0.274c0-0 0-0 0-0.001 0-0.309-0.211-0.57-0.498-0.644l-0.005-0.001-0.997-0.252c-0.206-0.053-0.355-0.236-0.355-0.455 0-0.259 0.21-0.469 0.469-0.469 0.041 0 0.081 0.005 0.12 0.015l-0.003-0.001 0.997 0.252c0.701 0.181 1.21 0.807 1.21 1.553 0 0 0 0.001 0 0.001v-0 0.274c0 0 0 0 0 0 0 0.259-0.21 0.469-0.469 0.469-0 0-0 0-0 0v0z"></path>
            <path fill="#0d263e" style="fill: var(--color12, #0d263e)" d="M12.172 22.131c-0 0-0 0-0 0-0.259 0-0.469-0.21-0.469-0.469 0-0 0-0 0-0v0-0.274c0-0 0-0.001 0-0.001 0-0.745 0.509-1.372 1.199-1.55l0.011-0.002 0.997-0.252c0.035-0.009 0.075-0.015 0.116-0.015 0.259 0 0.469 0.21 0.469 0.469 0 0.219-0.15 0.402-0.352 0.454l-0.003 0.001-0.997 0.252c-0.291 0.075-0.502 0.335-0.502 0.645 0 0 0 0 0 0.001v-0 0.274c0 0 0 0 0 0 0 0.259-0.21 0.469-0.469 0.469-0 0-0 0-0 0v0z"></path>
            <path fill="#ef9e72" style="fill: var(--color11, #ef9e72)" d="M16 16.413c0.573 0 1.038 0.465 1.038 1.038v1.675c0 0.573-0.465 1.038-1.038 1.038s-1.038-0.465-1.038-1.038v-1.675c0-0.573 0.465-1.038 1.038-1.038z"></path>
            <path fill="#ef9e72" style="fill: var(--color11, #ef9e72)" d="M23.406 14.595h-0.844v2.509h0.844c0.625-0.084 1.101-0.614 1.101-1.255s-0.477-1.171-1.095-1.254l-0.006-0.001z"></path>
            <path fill="#0d263e" style="fill: var(--color12, #0d263e)" d="M18.585 17.226c-0.259-0-0.468-0.21-0.468-0.469 0-0.235 0.172-0.429 0.398-0.463l0.003-0 2.2-0.326c0.021-0.003 0.044-0.005 0.069-0.005 0.259 0 0.469 0.21 0.469 0.469 0 0.235-0.172 0.429-0.398 0.463l-0.003 0-2.2 0.326c-0.021 0.003-0.045 0.005-0.069 0.005-0 0-0 0-0 0h0z"></path>
            <path fill="#0d263e" style="fill: var(--color12, #0d263e)" d="M13.415 17.226c-0 0-0 0-0.001 0-0.024 0-0.048-0.002-0.071-0.005l0.003 0-2.2-0.326c-0.228-0.035-0.4-0.229-0.4-0.464 0-0.259 0.21-0.469 0.469-0.469 0.024 0 0.048 0.002 0.071 0.005l-0.003-0 2.2 0.326c0.228 0.035 0.4 0.229 0.4 0.464 0 0.259-0.21 0.469-0.468 0.469h-0z"></path>
            <path fill="#ef9e72" style="fill: var(--color11, #ef9e72)" d="M8.594 14.595h0.844v2.509h-0.844c-0.625-0.084-1.101-0.614-1.101-1.255s0.477-1.171 1.095-1.254l0.007-0.001z"></path>
            <path fill="#0d263e" style="fill: var(--color12, #0d263e)" d="M16 7.177c-1.705-0.185-3.026-1.272-3.026-1.272s-0.060 1.142 0.466 1.79c0 0-0.945-0.049-1.538-0.518 0 0 0.008 0.813 0.329 1.196-1.698 1.2-2.793 3.155-2.793 5.366 0 0 0 0.001 0 0.001v-0c0-0.001 0.614-2.468 3.228-3.344h0.001c0.824 0.823 2.010 1.343 3.333 1.343s2.509-0.52 3.333-1.343h0.001c2.282 0.764 3.039 2.74 3.195 3.231l0.033 0.113c-0-3.624-2.938-6.562-6.563-6.562 0 0-0 0-0 0v0z"></path>
        </symbol>
        <symbol id="man3" viewBox="0 0 32 32">
            <path fill="#0d263e" style="fill: var(--color12, #0d263e)" d="M14.309 15.854c-0.383 0.329-0.885 0.529-1.433 0.529-0.142 0-0.28-0.013-0.415-0.039l0.014 0.002c-0.69-0.131-1.256-0.572-1.555-1.17l-0.006-0.013c-0.296 0.16-0.649 0.254-1.023 0.254-0.366 0-0.711-0.090-1.014-0.249l0.012 0.006c-0.709-0.368-1.186-1.097-1.186-1.938 0-0.042 0.001-0.084 0.004-0.126l-0 0.006c-1.085-0.135-1.918-1.043-1.933-2.15l-0-0.002c-0-0.009-0-0.020-0-0.031 0-1.106 0.822-2.020 1.889-2.164l0.011-0.001c-0.003-0.042-0.004-0.090-0.004-0.139 0-0.839 0.472-1.567 1.164-1.935l0.012-0.006c0.294-0.158 0.644-0.25 1.015-0.25s0.721 0.093 1.027 0.256l-0.012-0.006c0.304-0.612 0.87-1.055 1.547-1.186l0.014-0.002c0.122-0.024 0.262-0.038 0.406-0.038 0.547 0 1.047 0.201 1.43 0.533l-0.003-0.002c0.401-0.499 1.012-0.816 1.696-0.816 0 0 0.001 0 0.001 0h-0c0.001 0 0.003 0 0.004 0 0.684 0 1.295 0.314 1.695 0.806l0.003 0.004c0.38-0.332 0.881-0.535 1.43-0.535 0.141 0 0.279 0.013 0.413 0.039l-0.014-0.002c0.69 0.13 1.257 0.569 1.56 1.165l0.006 0.012c0.296-0.16 0.649-0.254 1.023-0.254 0.366 0 0.711 0.090 1.014 0.249l-0.012-0.006c0.712 0.372 1.19 1.105 1.19 1.95 0 0.036-0.001 0.072-0.003 0.108l0-0.005c1.084 0.124 1.922 1.026 1.943 2.127l0 0.002v0.038c0 0.011 0.006 0.027 0.006 0.044v0c-0 1.115-0.833 2.035-1.911 2.172l-0.011 0.001c0.003 0.040 0.004 0.086 0.004 0.133 0 0.839-0.474 1.567-1.169 1.931l-0.012 0.006c-0.292 0.156-0.639 0.248-1.008 0.248-0.372 0-0.723-0.094-1.029-0.259l0.012 0.006c-0.307 0.609-0.871 1.051-1.546 1.186l-0.014 0.002c-0.12 0.023-0.259 0.037-0.4 0.037-0.55 0-1.052-0.203-1.437-0.537l0.003 0.002c-0.402 0.499-1.013 0.816-1.698 0.816-0.002 0-0.003 0-0.005 0h0c-0.683-0-1.293-0.314-1.694-0.806l-0.003-0.004z"></path>
            <path fill="#f4e2ff" style="fill: var(--color7, #f4e2ff)" d="M19.823 25.261l-0.464 3.722c-0.044 0.348-0.338 0.614-0.695 0.614-0.001 0-0.003 0-0.004 0h-5.32c-0.001 0-0.002 0-0.004 0-0.356 0-0.65-0.266-0.694-0.611l-0-0.003-0.464-3.722c-0.014-0.105-0.022-0.227-0.022-0.351 0-1.553 1.258-2.812 2.811-2.813h2.067c1.553 0.001 2.811 1.26 2.811 2.813 0 0.124-0.008 0.246-0.023 0.365l0.002-0.014z"></path>
            <path fill="#27b286" style="fill: var(--color14, #27b286)" d="M17.423 27.567l-1.42 1.383-1.425-1.425 1.13-5.428h0.614l1.102 5.47z"></path>
            <path fill="#a5442e" style="fill: var(--color15, #a5442e)" d="M23.239 13.74l-0.677 0c0-3.624-2.938-6.563-6.563-6.563s-6.563 2.938-6.563 6.563v0-0h-0.677c-1.165 0-2.11 0.944-2.11 2.11s0.944 2.11 2.11 2.11v0l0.677-0c0 3.624 2.938 6.563 6.563 6.563s6.563-2.938 6.563-6.563v0 0h0.677c1.165 0 2.11-0.944 2.11-2.11s-0.944-2.11-2.11-2.11v0z"></path>
            <path fill="#0d263e" style="fill: var(--color12, #0d263e)" d="M16.817 19.854h-5.868c0 0.002 0 0.004 0 0.006 0 1.617 1.311 2.929 2.929 2.929 0.835 0 1.588-0.349 2.121-0.91l0.001-0.001c0.535 0.561 1.288 0.911 2.122 0.911 1.617 0 2.929-1.311 2.929-2.929 0-0.002 0-0.004 0-0.006v0z"></path>
            <path fill="#8c2b15" style="fill: var(--color16, #8c2b15)" d="M16 16.47c0.787 0 1.425 0.638 1.425 1.425v1.425c0 0.787-0.638 1.425-1.425 1.425s-1.425-0.638-1.425-1.425v-1.425c0-0.787 0.638-1.425 1.425-1.425z"></path>
            <path fill="#8c2b15" style="fill: var(--color16, #8c2b15)" d="M23.406 14.595h-0.844v2.509h0.844c0.625-0.084 1.101-0.614 1.101-1.255s-0.477-1.171-1.095-1.254l-0.006-0.001z"></path>
            <path fill="#0d253d" style="fill: var(--color17, #0d253d)" d="M20.974 15.656c0 0.712-0.577 1.289-1.289 1.289s-1.289-0.577-1.289-1.289c0-0.712 0.577-1.289 1.289-1.289s1.289 0.577 1.289 1.289z"></path>
            <path fill="#ffefdc" style="fill: var(--color18, #ffefdc)" d="M20.454 15.176c0 0.265-0.215 0.48-0.48 0.48s-0.48-0.215-0.48-0.48c0-0.265 0.215-0.48 0.48-0.48s0.48 0.215 0.48 0.48z"></path>
            <path fill="#0d253d" style="fill: var(--color17, #0d253d)" d="M13.604 15.656c0 0.712-0.577 1.289-1.289 1.289s-1.289-0.577-1.289-1.289c0-0.712 0.577-1.289 1.289-1.289s1.289 0.577 1.289 1.289z"></path>
            <path fill="#ffefdc" style="fill: var(--color18, #ffefdc)" d="M13.083 15.176c0 0.265-0.215 0.48-0.48 0.48s-0.48-0.215-0.48-0.48c0-0.265 0.215-0.48 0.48-0.48s0.48 0.215 0.48 0.48z"></path>
            <path fill="#8c2b15" style="fill: var(--color16, #8c2b15)" d="M8.594 14.595h0.844v2.509h-0.844c-0.625-0.084-1.101-0.614-1.101-1.255s0.477-1.171 1.095-1.254l0.007-0.001z"></path>
        </symbol>
        <symbol id="man4" viewBox="0 0 32 32">
            <path fill="#f4e2ff" style="fill: var(--color7, #f4e2ff)" d="M17.033 22.096h-2.066c-0.25 0.001-0.491 0.034-0.721 0.096l0.020-0.005v7.409h3.469v-7.409c-0.21-0.057-0.452-0.090-0.701-0.091h-0z"></path>
            <path fill="#eb5e59" style="fill: var(--color19, #eb5e59)" d="M17.423 27.567l-1.42 1.383-1.425-1.425 1.13-5.428h0.614l1.102 5.47z"></path>
            <path fill="#243f57" style="fill: var(--color8, #243f57)" d="M19.358 28.981l0.465-3.724c0.014-0.104 0.021-0.225 0.021-0.347 0-1.304-0.887-2.4-2.091-2.718l-0.020-0.004v7.409h0.927c0.357-0 0.652-0.267 0.696-0.612l0-0.003z"></path>
            <path fill="#243f57" style="fill: var(--color8, #243f57)" d="M12.176 25.257l0.466 3.724c0.045 0.349 0.34 0.615 0.697 0.615h0.927v-7.409c-1.223 0.322-2.111 1.419-2.111 2.722 0 0.122 0.008 0.243 0.023 0.361l-0.001-0.014z"></path>
            <path fill="#f8c4b0" style="fill: var(--color20, #f8c4b0)" d="M23.239 13.74l-0.677 0c0-3.624-2.938-6.563-6.563-6.563s-6.563 2.938-6.563 6.563v0-0h-0.677c-0.001 0-0.002 0-0.004 0-1.165 0-2.11 0.944-2.11 2.11s0.944 2.109 2.11 2.109c0.001 0 0.003 0 0.004 0l0.676-0c0 3.624 2.938 6.563 6.562 6.563s6.563-2.938 6.563-6.563v0 0h0.677c0.001 0 0.002 0 0.004 0 1.165 0 2.11-0.944 2.11-2.11s-0.944-2.11-2.11-2.11c-0.001 0-0.003 0-0.004 0h0z"></path>
            <path fill="#ff8080" style="fill: var(--color21, #ff8080)" d="M16 22.384c-0.002 0-0.004 0-0.006 0-0.645 0-1.23-0.262-1.652-0.686l-0-0c-0.085-0.085-0.137-0.202-0.137-0.332 0-0.259 0.21-0.469 0.469-0.469 0.129 0 0.247 0.052 0.331 0.137v0c0.532 0.532 1.458 0.531 1.989 0 0.085-0.085 0.202-0.137 0.331-0.137 0.259 0 0.469 0.21 0.469 0.469 0 0.129-0.052 0.247-0.137 0.331v0c-0.422 0.424-1.005 0.687-1.651 0.687-0.002 0-0.005 0-0.007 0h0z"></path>
            <path fill="#ef9e8b" style="fill: var(--color22, #ef9e8b)" d="M16 15.326c1.036 0 1.875 0.839 1.875 1.875v1.875c0 1.036-0.839 1.875-1.875 1.875s-1.875-0.839-1.875-1.875v-1.875c0-1.036 0.839-1.875 1.875-1.875z"></path>
            <path fill="#ef9e8b" style="fill: var(--color22, #ef9e8b)" d="M23.406 14.594h-0.844v2.509h0.844c0.625-0.084 1.101-0.614 1.101-1.255s-0.477-1.171-1.095-1.254l-0.006-0.001z"></path>
            <path fill="#004b28" style="fill: var(--color23, #004b28)" d="M20.974 15.656c0 0.712-0.577 1.289-1.289 1.289s-1.289-0.577-1.289-1.289c0-0.712 0.577-1.289 1.289-1.289s1.289 0.577 1.289 1.289z"></path>
            <path fill="#ffefdc" style="fill: var(--color18, #ffefdc)" d="M20.454 15.176c0 0.265-0.215 0.48-0.48 0.48s-0.48-0.215-0.48-0.48c0-0.265 0.215-0.48 0.48-0.48s0.48 0.215 0.48 0.48z"></path>
            <path fill="#004b28" style="fill: var(--color23, #004b28)" d="M13.604 15.656c0 0.712-0.577 1.289-1.289 1.289s-1.289-0.577-1.289-1.289c0-0.712 0.577-1.289 1.289-1.289s1.289 0.577 1.289 1.289z"></path>
            <path fill="#ffefdc" style="fill: var(--color18, #ffefdc)" d="M13.083 15.176c0 0.265-0.215 0.48-0.48 0.48s-0.48-0.215-0.48-0.48c0-0.265 0.215-0.48 0.48-0.48s0.48 0.215 0.48 0.48z"></path>
            <path fill="#ef9e8b" style="fill: var(--color22, #ef9e8b)" d="M8.594 14.594h0.844v2.509h-0.844c-0.625-0.084-1.101-0.614-1.101-1.255s0.477-1.171 1.095-1.254l0.007-0.001z"></path>
            <path fill="#521919" style="fill: var(--color24, #521919)" d="M22.583 9.024c0-3.112-7.648-7.061-12.309-2.553-3.097 2.995-2.862 5.874-2.349 7.443 0.246-0.11 0.533-0.174 0.835-0.174h0.677c0.763-2.716 2.888-3.559 2.888-3.559s0.865 2.194 3.609 2.513c2.744 0.319 4.561-0.298 6.628 1.046h0.677c0.309 0.001 0.603 0.068 0.866 0.189l-0.013-0.005c1.133-3.631-1.509-4.899-1.509-4.899z"></path>
        </symbol>
        <symbol id="woman5" viewBox="0 0 32 32">
            <path fill="#c94517" style="fill: var(--color25, #c94517)" d="M22.549 22.088l-0.006 0.002c0.001-0.027 0.002-0.059 0.002-0.091 0-1.43-1.159-2.589-2.589-2.589s-2.589 1.159-2.589 2.589c0 0.478 0.129 0.925 0.355 1.309l-0.007-0.012c1.329 2.302 4.587 4.002 7.474 2.003 0 0-2.78-0.805-2.64-3.21z"></path>
            <path fill="#521919" style="fill: var(--color24, #521919)" d="M19.729 28.702l-1.134-3.968c-0.083-0.282-0.208-0.528-0.37-0.745l0.004 0.006-2.229 3.861-2.229-3.861c-0.158 0.211-0.283 0.456-0.362 0.722l-0.004 0.017-1.134 3.968c-0.017 0.058-0.027 0.124-0.027 0.193 0 0.388 0.314 0.702 0.702 0.702 0 0 0 0 0 0h6.108c0 0 0 0 0 0 0.388 0 0.702-0.314 0.702-0.702 0-0.069-0.010-0.135-0.028-0.198l0.001 0.005z"></path>
            <path fill="#f4e2ff" style="fill: var(--color7, #f4e2ff)" d="M18.229 23.995c-0.43-0.585-1.115-0.96-1.887-0.961h-0.683c-0.773 0.001-1.458 0.377-1.883 0.955l-0.005 0.006 2.229 3.861z"></path>
            <path fill="#f8c4b0" style="fill: var(--color20, #f8c4b0)" d="M23.612 14.258h-0.654c-0.48-3.453-3.412-6.083-6.958-6.085h-0c-3.547 0.002-6.479 2.632-6.954 6.048l-0.004 0.037h-0.654c-0.001 0-0.002 0-0.004 0-1.165 0-2.109 0.944-2.109 2.109s0.944 2.109 2.109 2.109c0.001 0 0.003 0 0.004 0h0.653c0.48 3.453 3.412 6.083 6.958 6.085h0c3.547-0.002 6.479-2.632 6.954-6.048l0.004-0.037h0.654c0.001 0 0.002 0 0.004 0 1.165 0 2.109-0.944 2.109-2.109s-0.944-2.109-2.109-2.109c-0.001 0-0.003 0-0.004 0h0z"></path>
            <path fill="#ff4d4d" style="fill: var(--color26, #ff4d4d)" d="M16 22.425c-0.002 0-0.004 0-0.007 0-0.645 0-1.229-0.262-1.65-0.687l-0-0c-0.085-0.085-0.137-0.202-0.137-0.331 0-0.259 0.21-0.469 0.469-0.469 0.129 0 0.247 0.052 0.331 0.137v0c0.531 0.531 1.457 0.531 1.989 0 0.085-0.085 0.202-0.138 0.332-0.138 0.259 0 0.469 0.21 0.469 0.469 0 0.13-0.053 0.247-0.138 0.332v0c-0.422 0.424-1.005 0.687-1.651 0.687-0.002 0-0.005 0-0.007 0h0z"></path>
            <path fill="#ef9e8b" style="fill: var(--color22, #ef9e8b)" d="M16 17.241c0.518 0 0.938 0.42 0.938 0.938v0.938c0 0.518-0.42 0.938-0.938 0.938s-0.938-0.42-0.938-0.938v-0.938c0-0.518 0.42-0.938 0.938-0.938z"></path>
            <path fill="#ef9e8b" style="fill: var(--color22, #ef9e8b)" d="M23.779 15.113h-0.844v2.509h0.844c0.625-0.084 1.101-0.614 1.101-1.255s-0.477-1.171-1.095-1.254l-0.006-0.001z"></path>
            <path fill="#0167a3" style="fill: var(--color27, #0167a3)" d="M21.011 15.309c-0.085-0.085-0.202-0.137-0.331-0.137s-0.247 0.052-0.331 0.137l-0.146 0.146c-0.153-0.069-0.332-0.109-0.521-0.109-0.714 0-1.293 0.579-1.293 1.293s0.579 1.293 1.293 1.293c0.714 0 1.293-0.579 1.293-1.293 0-0.188-0.040-0.367-0.113-0.529l0.003 0.008 0.146-0.146c0.085-0.085 0.137-0.202 0.137-0.331s-0.052-0.247-0.137-0.331v0z"></path>
            <path fill="#ffefdc" style="fill: var(--color18, #ffefdc)" d="M20.454 16.154c0 0.265-0.215 0.48-0.48 0.48s-0.48-0.215-0.48-0.48c0-0.265 0.215-0.48 0.48-0.48s0.48 0.215 0.48 0.48z"></path>
            <path fill="#0167a3" style="fill: var(--color27, #0167a3)" d="M12.315 15.345c-0.187 0-0.365 0.040-0.525 0.113l0.008-0.003-0.146-0.146c-0.085-0.085-0.202-0.138-0.332-0.138-0.259 0-0.469 0.21-0.469 0.469 0 0.13 0.053 0.247 0.138 0.332v0l0.146 0.146c-0.068 0.152-0.108 0.329-0.108 0.516 0 0.712 0.577 1.288 1.288 1.288s1.288-0.577 1.288-1.288c0-0.712-0.577-1.288-1.288-1.288-0 0-0.001 0-0.001 0h0z"></path>
            <path fill="#ffefdc" style="fill: var(--color18, #ffefdc)" d="M13.083 16.154c0 0.265-0.215 0.48-0.48 0.48s-0.48-0.215-0.48-0.48c0-0.265 0.215-0.48 0.48-0.48s0.48 0.215 0.48 0.48z"></path>
            <path fill="#ef9e8b" style="fill: var(--color22, #ef9e8b)" d="M8.221 15.113h0.844v2.509h-0.844c-0.625-0.084-1.101-0.614-1.101-1.255s0.477-1.171 1.095-1.254l0.007-0.001z"></path>
            <path fill="#eb5d25" style="fill: var(--color13, #eb5d25)" d="M22.953 14.225c-0.494-3.437-3.419-6.050-6.953-6.052h-0c-3.535 0.002-6.459 2.614-6.949 6.013l-0.004 0.038c0.11-0.28 0.984-2.326 3.181-2.783 0.213-0.048 0.458-0.076 0.709-0.076 0.411 0 0.806 0.074 1.17 0.209l-0.023-0.008c0.57 0.214 1.229 0.338 1.917 0.338s1.347-0.124 1.955-0.35l-0.039 0.013c0.341-0.128 0.735-0.202 1.147-0.202 0.251 0 0.496 0.028 0.731 0.080l-0.022-0.004c2.199 0.457 3.072 2.506 3.181 2.784z"></path>
            <path fill="#ff7443" style="fill: var(--color28, #ff7443)" d="M13.083 11.369s-0.347-1.494-2.079-1.659c-1.794-0.171-3.792 1.164-3.506 4.192 0.22 2.329 1.529 2.481 1.304 4.524s-0.328 3.464 1.821 4.664c0 0-1.252-1.909-0.637-3.527s-0.414-3.501 0.277-5.3c0.691-1.799 1.933-2.952 2.819-2.894z"></path>
        </symbol>
        <symbol id="woman6" viewBox="0 0 32 32">
            <path fill="#071b2b" style="fill: var(--color29, #071b2b)" d="M21.863 21.543l-0.010 0.001c0.070-0.291 0.11-0.626 0.11-0.97 0-2.392-1.939-4.33-4.33-4.33s-4.33 1.939-4.33 4.33c0 0.508 0.088 0.996 0.249 1.45l-0.009-0.030c1.453 4.202 6.264 8.027 11.64 5.66 0 0-4.311-2.204-3.318-6.11z"></path>
            <path fill="#eb5e59" style="fill: var(--color19, #eb5e59)" d="M19.339 2.713l-2.92 1.686-2.92-1.686c-0.194-0.114-0.428-0.182-0.677-0.182-0.748 0-1.355 0.607-1.355 1.355 0 0 0 0 0 0v0 2.931c0 0 0 0 0 0 0 0.748 0.607 1.355 1.355 1.355 0.249 0 0.483-0.067 0.684-0.185l-0.006 0.003 2.92-1.686 2.92 1.686c0.194 0.114 0.428 0.182 0.677 0.182 0.748 0 1.355-0.607 1.355-1.355 0 0 0-0 0-0v0-2.931c0-0 0-0 0-0 0-0.748-0.607-1.355-1.355-1.355-0.249 0-0.483 0.067-0.684 0.185l0.006-0.003z"></path>
            <path fill="#dd4747" style="fill: var(--color30, #dd4747)" d="M16.42 3.217c0.628 0 1.137 0.509 1.137 1.137v1.995c0 0.628-0.509 1.137-1.137 1.137s-1.137-0.509-1.137-1.137v-1.995c0-0.628 0.509-1.137 1.137-1.137z"></path>
            <path fill="#f4e2ff" style="fill: var(--color7, #f4e2ff)" d="M20.148 28.702l-1.134-3.968c-0.083-0.282-0.208-0.528-0.37-0.745l0.004 0.006-2.229 2.923-2.229-2.923c-0.158 0.211-0.283 0.456-0.362 0.722l-0.004 0.017-1.134 3.968c-0.017 0.058-0.027 0.124-0.027 0.193 0 0.388 0.314 0.702 0.702 0.702 0 0 0 0 0 0h6.108c0 0 0 0 0 0 0.388 0 0.702-0.314 0.702-0.702 0-0.069-0.010-0.135-0.028-0.198l0.001 0.005z"></path>
            <path fill="#3285e2" style="fill: var(--color31, #3285e2)" d="M18.649 23.995c-0.304-0.41-0.73-0.715-1.224-0.861l-0.017-0.004-0.989 3.789z"></path>
            <path fill="#3285e2" style="fill: var(--color31, #3285e2)" d="M16.419 26.918l-0.989-3.789c-0.51 0.151-0.936 0.455-1.236 0.859l-0.005 0.006 2.229 2.923z"></path>
            <path fill="#f8c497" style="fill: var(--color9, #f8c497)" d="M16.42 26.918l0.989-3.789c-0.194-0.060-0.416-0.094-0.647-0.096h-0.684c-0.231 0.001-0.454 0.036-0.664 0.1l0.016-0.004 0.989 3.789z"></path>
            <path fill="#f8c497" style="fill: var(--color9, #f8c497)" d="M24.032 14.258h-0.654c-0.478-3.454-3.411-6.085-6.959-6.085s-6.481 2.631-6.954 6.048l-0.004 0.037h-0.654c-1.165 0-2.109 0.944-2.109 2.109s0.944 2.109 2.109 2.109v0h0.654c0.478 3.454 3.411 6.085 6.959 6.085s6.481-2.631 6.954-6.048l0.004-0.037h0.654c1.165 0 2.109-0.944 2.109-2.109s-0.944-2.109-2.109-2.109v0z"></path>
            <path fill="#ff4d4d" style="fill: var(--color26, #ff4d4d)" d="M16.419 22.425c-0.002 0-0.004 0-0.007 0-0.645 0-1.229-0.262-1.65-0.686l-0-0c-0.085-0.085-0.137-0.202-0.137-0.331 0-0.259 0.21-0.469 0.469-0.469 0.129 0 0.247 0.052 0.331 0.137v0c0.531 0.531 1.457 0.531 1.989 0 0.085-0.085 0.202-0.137 0.331-0.137 0.259 0 0.469 0.21 0.469 0.469 0 0.129-0.052 0.247-0.137 0.331v0c-0.422 0.424-1.006 0.686-1.651 0.686-0.002 0-0.005 0-0.007 0h0z"></path>
            <path fill="#ef9e72" style="fill: var(--color11, #ef9e72)" d="M16.42 17.241c0.518 0 0.938 0.42 0.938 0.938v0.938c0 0.518-0.42 0.938-0.938 0.938s-0.938-0.42-0.938-0.938v-0.938c0-0.518 0.42-0.938 0.938-0.938z"></path>
            <path fill="#ef9e72" style="fill: var(--color11, #ef9e72)" d="M24.199 15.113h-0.844v2.509h0.844c0.625-0.084 1.101-0.614 1.101-1.255s-0.477-1.171-1.095-1.254l-0.006-0.001z"></path>
            <path fill="#0d253d" style="fill: var(--color17, #0d253d)" d="M21.43 15.309c-0.085-0.085-0.202-0.137-0.331-0.137s-0.247 0.052-0.331 0.137l-0.146 0.146c-0.153-0.069-0.332-0.109-0.521-0.109-0.714 0-1.293 0.579-1.293 1.293s0.579 1.293 1.293 1.293c0.714 0 1.293-0.579 1.293-1.293 0-0.188-0.040-0.367-0.113-0.529l0.003 0.008 0.146-0.146c0.085-0.085 0.137-0.202 0.137-0.331s-0.052-0.247-0.137-0.331v0z"></path>
            <path fill="#ffefdc" style="fill: var(--color18, #ffefdc)" d="M20.873 16.154c0 0.265-0.215 0.48-0.48 0.48s-0.48-0.215-0.48-0.48c0-0.265 0.215-0.48 0.48-0.48s0.48 0.215 0.48 0.48z"></path>
            <path fill="#0d253d" style="fill: var(--color17, #0d253d)" d="M12.734 15.346c-0.187 0-0.365 0.040-0.525 0.113l0.008-0.003-0.146-0.146c-0.085-0.084-0.202-0.137-0.331-0.137-0.259 0-0.469 0.21-0.469 0.469 0 0.129 0.052 0.246 0.137 0.331v0l0.146 0.146c-0.068 0.152-0.108 0.329-0.108 0.516 0 0.712 0.577 1.288 1.288 1.288s1.288-0.577 1.288-1.288c0-0.712-0.577-1.288-1.288-1.288-0 0-0.001 0-0.001 0h0z"></path>
            <path fill="#ffefdc" style="fill: var(--color18, #ffefdc)" d="M13.503 16.154c0 0.265-0.215 0.48-0.48 0.48s-0.48-0.215-0.48-0.48c0-0.265 0.215-0.48 0.48-0.48s0.48 0.215 0.48 0.48z"></path>
            <path fill="#ef9e72" style="fill: var(--color11, #ef9e72)" d="M8.64 15.113h0.844v2.509h-0.844c-0.625-0.084-1.101-0.614-1.101-1.255s0.477-1.171 1.095-1.254l0.007-0.001z"></path>
            <path fill="#0d253d" style="fill: var(--color17, #0d253d)" d="M16.417 4.956c-7.598 0-10.561 3.216-10.561 6.886 0 1.669 0.741 2.63 1.359 3.145 0.218-0.246 0.489-0.44 0.797-0.563l0.014-0.005c0.191 6.614 2.64 10.142 2.64 10.142v-10.951h-0.001c1.389-0.459 2.895-0.151 4.664-0.401 2.297-0.319 3.019-2.512 3.019-2.512s1.137 2.615 4.045 3.382h-0.024v9.57s2.332-3.337 2.417-9.246c0.003 0.001 0.005 0.001 0.008 0.002v-1.078c-0.002-4.624-3.751-8.372-8.375-8.372-0 0-0.001 0-0.002 0h0z"></path>
        </symbol>
        <symbol id="woman7" viewBox="0 0 32 32">
            <path fill="#0d263e" style="fill: var(--color12, #0d263e)" d="M26.118 11.2c0.273-0.325 0.439-0.749 0.439-1.211 0-0.884-0.607-1.627-1.427-1.833l-0.013-0.003c0.085-0.208 0.135-0.449 0.135-0.701 0-1.043-0.845-1.888-1.888-1.888-0.050 0-0.099 0.002-0.148 0.006l0.006-0c0.003-0.037 0.004-0.080 0.004-0.124 0-1.046-0.848-1.893-1.893-1.893-0.255 0-0.499 0.051-0.721 0.142l0.013-0.005c-0.214-0.826-0.954-1.427-1.833-1.427-0.468 0-0.896 0.17-1.226 0.451l0.003-0.002c-0.34-0.534-0.928-0.883-1.598-0.883-0.674 0-1.266 0.353-1.6 0.885l-0.005 0.008c-0.326-0.275-0.75-0.443-1.214-0.443-0.883 0-1.625 0.607-1.83 1.426l-0.003 0.013c-0.207-0.085-0.448-0.134-0.7-0.134-1.046 0-1.893 0.848-1.893 1.893 0 0.048 0.002 0.095 0.005 0.141l-0-0.006c-0.039-0.003-0.084-0.004-0.129-0.004-1.043 0-1.889 0.846-1.889 1.889 0 0.256 0.051 0.499 0.143 0.722l-0.005-0.013c-0.827 0.216-1.428 0.956-1.428 1.836 0 0.466 0.168 0.893 0.447 1.223l-0.002-0.003c-0.534 0.34-0.883 0.929-0.883 1.6 0 0.673 0.351 1.263 0.88 1.598l0.008 0.005c-0.273 0.326-0.439 0.749-0.439 1.211 0 0.883 0.605 1.624 1.422 1.833l0.013 0.003c-0.087 0.209-0.137 0.453-0.137 0.708 0 1.044 0.846 1.891 1.891 1.891 0.048 0 0.095-0.002 0.143-0.005l-0.006 0c-0.003 0.039-0.004 0.084-0.004 0.129 0 1.043 0.846 1.889 1.889 1.889 0.256 0 0.499-0.051 0.722-0.143l-0.013 0.005c0.212 0.829 0.953 1.432 1.834 1.432 0.465 0 0.891-0.168 1.221-0.447l-0.003 0.002c0.339 0.537 0.93 0.888 1.602 0.888 0.674 0 1.266-0.353 1.601-0.885l0.005-0.008c0.326 0.275 0.751 0.443 1.215 0.443 0.882 0 1.622-0.604 1.829-1.421l0.003-0.013c0.209 0.087 0.453 0.137 0.708 0.137 1.044 0 1.89-0.846 1.89-1.89 0-0.047-0.002-0.093-0.005-0.138l0 0.006c0.040 0.003 0.087 0.005 0.134 0.005 1.043 0 1.889-0.846 1.889-1.889 0-0.256-0.051-0.499-0.143-0.722l0.005 0.013c0.83-0.212 1.434-0.954 1.434-1.836 0-0.464-0.167-0.889-0.444-1.218l0.002 0.003c0.537-0.339 0.888-0.929 0.888-1.601 0-0 0-0 0-0v0-0.042c-0.005-0.673-0.359-1.263-0.89-1.597l-0.008-0.005z"></path>
            <path fill="#27b286" style="fill: var(--color14, #27b286)" d="M19.054 29.596h-6.108c-0.388 0-0.702-0.314-0.702-0.702 0-0.069 0.010-0.135 0.028-0.198l-0.001 0.005 1.134-3.968c0.289-0.989 1.188-1.7 2.254-1.7h0.683c1.065 0 1.964 0.71 2.249 1.683l0.004 0.017 1.134 3.968c0.017 0.058 0.027 0.124 0.027 0.193 0 0.388-0.314 0.702-0.702 0.702v0z"></path>
            <path fill="#a5442e" style="fill: var(--color15, #a5442e)" d="M23.612 14.258h-0.654c-0.478-3.454-3.411-6.085-6.959-6.085s-6.481 2.631-6.954 6.048l-0.004 0.037h-0.654c-0.001 0-0.002 0-0.004 0-1.165 0-2.11 0.944-2.11 2.11s0.944 2.11 2.11 2.11c0.001 0 0.003 0 0.004 0h0.653c0.478 3.454 3.411 6.085 6.959 6.085s6.48-2.631 6.954-6.048l0.004-0.037h0.654c0.001 0 0.002 0 0.004 0 1.165 0 2.11-0.944 2.11-2.11s-0.944-2.11-2.11-2.11c-0.001 0-0.003 0-0.004 0h0z"></path>
            <path fill="#8c1813" style="fill: var(--color32, #8c1813)" d="M16 22.425c-0.002 0-0.004 0-0.006 0-0.645 0-1.23-0.262-1.652-0.686l-0-0c-0.085-0.085-0.137-0.202-0.137-0.332 0-0.259 0.21-0.469 0.469-0.469 0.129 0 0.247 0.052 0.331 0.137v0c0.532 0.531 1.458 0.531 1.989 0 0.085-0.084 0.202-0.137 0.331-0.137 0.259 0 0.469 0.21 0.469 0.469 0 0.129-0.052 0.246-0.137 0.331v0c-0.422 0.424-1.005 0.686-1.651 0.686-0.002 0-0.005 0-0.007 0h0z"></path>
            <path fill="#8c2b15" style="fill: var(--color16, #8c2b15)" d="M16 17.241c0.518 0 0.938 0.42 0.938 0.938v0.938c0 0.518-0.42 0.938-0.938 0.938s-0.938-0.42-0.938-0.938v-0.938c0-0.518 0.42-0.938 0.938-0.938z"></path>
            <path fill="#8c2b15" style="fill: var(--color16, #8c2b15)" d="M23.779 15.113h-0.844v2.509h0.844c0.625-0.084 1.101-0.614 1.101-1.255s-0.477-1.171-1.095-1.254l-0.006-0.001z"></path>
            <path fill="#0d253d" style="fill: var(--color17, #0d253d)" d="M21.011 15.309c-0.085-0.085-0.202-0.137-0.331-0.137s-0.247 0.052-0.331 0.137l-0.146 0.146c-0.153-0.069-0.332-0.109-0.521-0.109-0.714 0-1.293 0.579-1.293 1.293s0.579 1.293 1.293 1.293c0.714 0 1.293-0.579 1.293-1.293 0-0.188-0.040-0.367-0.113-0.529l0.003 0.008 0.146-0.146c0.085-0.085 0.137-0.202 0.137-0.331s-0.052-0.247-0.137-0.331v0z"></path>
            <path fill="#ffefdc" style="fill: var(--color18, #ffefdc)" d="M20.454 16.154c0 0.265-0.215 0.48-0.48 0.48s-0.48-0.215-0.48-0.48c0-0.265 0.215-0.48 0.48-0.48s0.48 0.215 0.48 0.48z"></path>
            <path fill="#0d253d" style="fill: var(--color17, #0d253d)" d="M12.315 15.345c-0.187 0-0.365 0.040-0.525 0.113l0.008-0.003-0.146-0.146c-0.085-0.085-0.202-0.137-0.331-0.137-0.259 0-0.469 0.21-0.469 0.469 0 0.129 0.052 0.247 0.137 0.331l0.146 0.146c-0.068 0.152-0.108 0.329-0.108 0.516 0 0.712 0.577 1.288 1.288 1.288s1.288-0.577 1.288-1.288c0-0.712-0.577-1.288-1.288-1.288-0 0-0.001 0-0.001 0h0z"></path>
            <path fill="#ffefdc" style="fill: var(--color18, #ffefdc)" d="M13.083 16.154c0 0.265-0.215 0.48-0.48 0.48s-0.48-0.215-0.48-0.48c0-0.265 0.215-0.48 0.48-0.48s0.48 0.215 0.48 0.48z"></path>
            <path fill="#8c2b15" style="fill: var(--color16, #8c2b15)" d="M8.221 15.113h0.844v2.509h-0.844c-0.625-0.084-1.101-0.614-1.101-1.255s0.477-1.171 1.095-1.254l0.007-0.001z"></path>
            <path fill="#0d263e" style="fill: var(--color12, #0d263e)" d="M23.612 14.258c0-0.002 0-0.004 0-0.007 0-4.204-3.408-7.612-7.612-7.612s-7.612 3.408-7.612 7.612c0 0.002 0 0.005 0 0.007v-0h0.646c0.746-0.005 1.498-0.449 1.727-1.194 0.999 0.711 2.609 0.007 2.755-1.213 0.982 0.472 2.341-0.237 2.484-1.336 0.144 1.099 1.502 1.808 2.484 1.336 0.146 1.219 1.756 1.924 2.755 1.213 0.229 0.745 0.981 1.189 1.727 1.194z"></path>
        </symbol>
        <symbol id="woman8" viewBox="0 0 32 32">
            <path fill="#521919" style="fill: var(--color24, #521919)" d="M24.374 18.774v-1.398h-16.748v1.398c0 1.4-0.459 2.738-1.17 3.945-0.258 0.416-0.413 0.919-0.419 1.458v0.002c0 2.813 4.461 5.092 9.963 5.092s9.963-2.28 9.963-5.092c-0.006-0.541-0.161-1.044-0.426-1.471l0.007 0.012c-0.711-1.207-1.17-2.544-1.17-3.945z"></path>
            <path fill="#f4e2ff" style="fill: var(--color7, #f4e2ff)" d="M19.054 29.596h-6.108c-0.388 0-0.702-0.314-0.702-0.702 0-0.069 0.010-0.135 0.028-0.198l-0.001 0.005 1.134-3.968c0.289-0.989 1.188-1.7 2.254-1.7h0.683c1.065 0 1.964 0.71 2.249 1.683l0.004 0.017 1.134 3.968c0.017 0.058 0.027 0.124 0.027 0.193 0 0.388-0.314 0.702-0.702 0.702v0z"></path>
            <path fill="#f8c4b0" style="fill: var(--color20, #f8c4b0)" d="M23.612 14.258h-0.654c-0.48-3.453-3.412-6.083-6.958-6.085h-0c-3.547 0.002-6.479 2.632-6.954 6.048l-0.004 0.037h-0.654c-0.001 0-0.002 0-0.004 0-1.165 0-2.11 0.944-2.11 2.109s0.944 2.11 2.11 2.11c0.001 0 0.003 0 0.004 0h0.654c0.48 3.453 3.412 6.083 6.958 6.085h0c3.547-0.002 6.479-2.632 6.954-6.048l0.004-0.037h0.654c0.001 0 0.002 0 0.004 0 1.165 0 2.11-0.944 2.11-2.11s-0.944-2.11-2.11-2.11c-0.001 0-0.003 0-0.004 0h0z"></path>
            <path fill="#ff4d4d" style="fill: var(--color26, #ff4d4d)" d="M16 22.425c-0.002 0-0.004 0-0.007 0-0.645 0-1.229-0.262-1.65-0.686l-0-0c-0.084-0.085-0.137-0.202-0.137-0.331 0-0.259 0.21-0.469 0.469-0.469 0.129 0 0.246 0.052 0.331 0.137v0c0.531 0.531 1.457 0.531 1.989 0 0.085-0.084 0.202-0.137 0.331-0.137 0.259 0 0.469 0.21 0.469 0.469 0 0.129-0.052 0.246-0.137 0.331v0c-0.422 0.424-1.005 0.686-1.651 0.686-0.002 0-0.005 0-0.007 0h0z"></path>
            <path fill="#ef9e8b" style="fill: var(--color22, #ef9e8b)" d="M16 17.241c0.518 0 0.938 0.42 0.938 0.938v0.938c0 0.518-0.42 0.938-0.938 0.938s-0.938-0.42-0.938-0.938v-0.938c0-0.518 0.42-0.938 0.938-0.938z"></path>
            <path fill="#ef9e8b" style="fill: var(--color22, #ef9e8b)" d="M23.779 15.113h-0.844v2.509h0.844c0.625-0.084 1.101-0.614 1.101-1.255s-0.477-1.171-1.095-1.254l-0.006-0.001z"></path>
            <path fill="#004b28" style="fill: var(--color23, #004b28)" d="M21.011 15.309c-0.085-0.085-0.202-0.137-0.331-0.137s-0.247 0.052-0.331 0.137l-0.146 0.146c-0.153-0.069-0.332-0.109-0.521-0.109-0.714 0-1.293 0.579-1.293 1.293s0.579 1.293 1.293 1.293c0.714 0 1.293-0.579 1.293-1.293 0-0.188-0.040-0.367-0.113-0.529l0.003 0.008 0.146-0.146c0.085-0.085 0.137-0.202 0.137-0.331s-0.052-0.247-0.137-0.331v0z"></path>
            <path fill="#ffefdc" style="fill: var(--color18, #ffefdc)" d="M20.454 16.154c0 0.265-0.215 0.48-0.48 0.48s-0.48-0.215-0.48-0.48c0-0.265 0.215-0.48 0.48-0.48s0.48 0.215 0.48 0.48z"></path>
            <path fill="#004b28" style="fill: var(--color23, #004b28)" d="M12.315 15.345c-0.187 0-0.365 0.040-0.525 0.113l0.008-0.003-0.146-0.146c-0.085-0.085-0.202-0.137-0.331-0.137-0.259 0-0.469 0.21-0.469 0.469 0 0.129 0.052 0.247 0.137 0.331l0.146 0.146c-0.068 0.152-0.108 0.329-0.108 0.516 0 0.712 0.577 1.288 1.288 1.288s1.288-0.577 1.288-1.288c0-0.712-0.577-1.288-1.288-1.288-0 0-0.001 0-0.001 0h0z"></path>
            <path fill="#ffefdc" style="fill: var(--color18, #ffefdc)" d="M13.083 16.154c0 0.265-0.215 0.48-0.48 0.48s-0.48-0.215-0.48-0.48c0-0.265 0.215-0.48 0.48-0.48s0.48 0.215 0.48 0.48z"></path>
            <path fill="#ef9e8b" style="fill: var(--color22, #ef9e8b)" d="M8.221 15.113h0.844v2.509h-0.844c-0.625-0.084-1.101-0.614-1.101-1.255s0.477-1.171 1.095-1.254l0.007-0.001z"></path>
            <path fill="#521919" style="fill: var(--color24, #521919)" d="M24.374 13.329v1.073c-0.225-0.092-0.485-0.145-0.759-0.145-0.002 0-0.004 0-0.006 0h-0.647c-0 0-0 0-0 0-0.003 0-0.005-0.002-0.005-0.005 0-0 0-0 0-0v0c-2.067-1.336-4.275-0.722-7.017-1.041-2.747-0.319-3.609-2.512-3.609-2.512s-2.461 0.614-3.281 3.487c-0.005 0.023-0.014 0.047-0.019 0.070h-0.647c-0.001 0-0.001 0-0.002 0-0.273 0-0.533 0.053-0.771 0.15l0.014-0.005v-1.073c0-4.625 3.749-8.374 8.374-8.374s8.374 3.749 8.374 8.374v0z"></path>
        </symbol>
    </defs>
</svg>